<?xml version="1.0" standalone="no"?>
<!DOCTYPE svg PUBLIC "-//W3C//DTD SVG 20010904//EN"
 "http://www.w3.org/TR/2001/REC-SVG-20010904/DTD/svg10.dtd">
<svg version="1.0" xmlns="http://www.w3.org/2000/svg"
 width="661.000000pt" height="285.000000pt" viewBox="0 0 661.000000 285.000000"
 preserveAspectRatio="xMidYMid meet">

<g transform="translate(0.000000,285.000000) scale(0.100000,-0.100000)"
fill="#000000" stroke="none">
<path d="M1113 2432 c-139 -50 -246 -180 -260 -318 l-6 -51 -273 -5 c-151 -2
-277 -8 -281 -12 -5 -4 -10 -374 -12 -822 l-3 -815 748 3 c747 4 749 4 824 26
207 64 382 200 490 382 133 222 146 527 34 761 -94 196 -258 349 -454 423 -63
23 -133 39 -231 51 l-47 6 -7 55 c-9 76 -66 184 -122 233 -78 69 -143 94 -253
98 -74 3 -107 -1 -147 -15z m264 -90 c89 -46 147 -119 171 -215 7 -25 12 -51
12 -56 0 -8 -101 -11 -316 -11 l-317 0 6 45 c14 102 111 219 206 250 66 21
184 15 238 -13z m-220 -747 c70 -317 75 -335 87 -335 9 0 31 81 66 245 l54
245 253 0 253 0 0 -510 0 -510 -190 0 -190 0 0 68 c-1 37 -1 113 -1 170 0 91
-2 103 -17 100 -13 -3 -23 -38 -49 -168 -17 -91 -32 -166 -32 -168 -1 -1 -67
-1 -148 0 l-148 3 -32 160 c-17 88 -32 163 -32 168 -1 4 -8 7 -16 7 -13 0 -15
-26 -15 -170 l0 -170 -190 0 -190 0 0 510 0 510 252 -2 251 -3 34 -150z"/>
<path d="M2830 1685 l0 -375 140 0 140 0 0 125 c0 71 4 125 9 125 5 0 12 -8
15 -17 5 -17 46 -221 46 -229 0 -2 49 -4 108 -4 l108 0 24 125 c16 85 28 125
37 125 10 0 13 -28 13 -125 l0 -125 140 0 140 0 0 375 0 375 -185 0 c-183 0
-185 0 -190 -22 -3 -13 -19 -84 -35 -158 -16 -74 -32 -145 -35 -157 -8 -34
-32 -28 -39 10 -3 17 -20 98 -37 180 l-32 147 -183 0 -184 0 0 -375z"/>
<path d="M3802 1803 c5 -308 12 -338 94 -420 71 -72 153 -97 314 -97 189 -1
301 48 364 157 37 64 46 140 46 389 l0 228 -145 0 -145 0 0 -207 c0 -115 -5
-225 -10 -245 -16 -57 -53 -81 -118 -76 -37 3 -60 11 -75 27 -21 21 -22 30
-25 261 l-3 240 -150 0 -151 0 4 -257z"/>
<path d="M4670 1685 l0 -375 340 0 340 0 0 120 0 120 -190 0 -190 0 0 255 0
255 -150 0 -150 0 0 -375z"/>
<path d="M5150 1940 l0 -119 133 -3 132 -3 3 -252 2 -253 145 0 145 0 0 255 0
255 130 0 130 0 0 120 0 120 -410 0 -410 0 0 -120z"/>
<path d="M6027 2053 c-4 -3 -7 -172 -7 -375 l0 -368 150 0 150 0 0 375 0 375
-143 0 c-79 0 -147 -3 -150 -7z"/>
<path d="M4885 1226 c-166 -40 -277 -157 -306 -320 -37 -214 72 -404 269 -467
93 -30 250 -30 342 0 162 51 260 175 276 349 15 164 -63 324 -194 395 -97 53
-269 72 -387 43z m204 -264 c74 -37 100 -122 63 -205 -24 -55 -67 -81 -132
-81 -65 0 -108 26 -132 81 -62 139 69 273 201 205z"/>
<path d="M2827 1213 c-4 -3 -7 -179 -7 -390 l0 -383 248 0 c321 0 400 16 496
101 78 68 119 218 98 358 -28 193 -136 288 -355 311 -104 11 -470 13 -480 3z
m482 -267 c36 -19 51 -55 51 -119 0 -99 -45 -137 -162 -137 l-68 0 0 135 0
135 75 0 c46 0 87 -6 104 -14z"/>
<path d="M3738 1213 c-17 -4 -18 -31 -18 -389 l0 -384 150 0 150 0 0 90 0 90
78 0 77 0 45 -88 45 -87 148 -3 c81 -1 147 -1 147 1 0 2 -29 57 -64 123 l-64
119 29 30 c46 49 69 111 69 191 0 190 -87 283 -289 305 -86 9 -471 11 -503 2z
m459 -258 c25 -6 39 -42 28 -75 -9 -29 -44 -40 -131 -40 l-74 0 0 59 c0 34 5
61 11 63 14 5 136 -1 166 -7z"/>
<path d="M5518 1214 c-5 -4 -8 -180 -8 -391 l0 -383 150 0 150 0 0 68 0 69
128 6 c147 7 216 23 271 61 83 58 116 144 109 284 -5 107 -37 176 -100 222
-76 56 -116 62 -418 67 -151 3 -278 2 -282 -3z m492 -287 c13 -24 13 -30 0
-54 -18 -33 -46 -39 -136 -35 l-64 4 0 58 0 59 63 3 c89 4 119 -3 137 -35z"/>
</g>
</svg>
